<svg xmlns="http://www.w3.org/2000/svg" xmlns:xlink="http://www.w3.org/1999/xlink" width="25" height="27" viewBox="0 0 25 27"><defs><path id="w14ra" d="M599 594.44v5.43h-.75V613h-19.5v-13.13H578v-5.43h3.7a3.37 3.37 0 0 1-.27-3.9c.95-1.54 2.95-2 4.45-1.03.22.15.89.58 2.18 3.07l.44.9.45-.9c1.29-2.49 1.96-2.92 2.18-3.07a3.13 3.13 0 0 1 2.43-.43c.84.2 1.55.71 2.01 1.46a3.35 3.35 0 0 1-.26 3.9zm-9.43 0h.2c1.64-.02 3.53-.18 4.07-.53a1.92 1.92 0 0 0 .57-2.62 1.84 1.84 0 0 0-1.56-.88c-.35 0-.69.1-.98.3-.57.36-1.57 2.16-2.3 3.73zm-6.4-.53c.54.35 2.43.5 4.08.53h.19c-.74-1.57-1.73-3.37-2.3-3.74-.86-.56-2-.3-2.55.59-.54.88-.29 2.06.58 2.62zm2.69 5.96h-5.74v11.72h5.74zm0-4.03h-6.49v2.63h6.49zm3.92 0h-2.55v15.75h2.55zm7.1 4.03h-5.73v11.72h5.73zm.76-4.03h-6.49v2.63h6.49z"/></defs><g><g transform="translate(-576 -587)"><use fill="#77bb4c" xlink:href="#w14ra"/></g></g></svg>